<?xml version="1.0" encoding="UTF-8"?>
<!-- Generator: Adobe Illustrator 25.2.0, SVG Export Plug-In . SVG Version: 6.00 Build 0)  -->
<svg xmlns="http://www.w3.org/2000/svg" xmlns:xlink="http://www.w3.org/1999/xlink" version="1.1" id="Capa_1" x="0px" y="0px" viewBox="0 0 500 500" style="enable-background:new 0 0 500 500;" xml:space="preserve" width="512" height="512">
<g>
	<g>
		<path d="M248.883,230.081c0,13.726,0.028,27.65-0.012,41.574c-0.018,6.39-0.196,12.78-0.245,19.17    c-0.012,1.639,0.153,3.283,0.309,4.917c0.208,2.19,0.95,4.169,2.488,5.805c0.468,0.498,0.976,1.003,1.278,1.599    c0.263,0.518,0.521,1.3,0.306,1.724c-0.209,0.412-1.025,0.723-1.572,0.719c-2.738-0.019-5.476-0.244-8.213-0.231    c-4.655,0.022-9.308,0.171-13.962,0.256c-0.5,0.009-1.12,0.116-1.467-0.129c-0.349-0.246-0.728-1.071-0.575-1.311    c2.844-4.459,4.044-9.53,5.431-14.516c1.44-5.175,1.854-10.522,1.857-15.86c0.007-13.333-0.044-26.668-0.286-39.998    c-0.16-8.848-0.63-17.694-1.088-26.534c-0.16-3.089-0.69-6.159-1.066-9.236c-0.343-2.809-1.384-5.242-3.571-7.174    c-0.382-0.338-0.634-0.824-0.868-1.329c-0.252-0.545,0.031-1.192,0.603-1.376c0.425-0.136,0.851-0.25,1.279-0.259    c6.705-0.135,13.411-0.241,20.117-0.258c1.183-0.003,2.629-0.472,3.479,0.94c0.254,0.422,0.548,0.842,0.695,1.303    c4.351,13.702,8.757,27.387,12.981,41.128c1.797,5.847,3.423,11.744,4.949,17.667c0.172,0.668,0.296,1.05,0.632,2.183    c0.613-2.33,1.134-4.29,1.644-6.253c5.516-21.231,11.03-42.463,16.546-63.694c0.392-1.508,1.752-2.563,3.31-2.565    c3.561-0.005,7.121-0.006,10.682-0.006c3.566,0,7.132,0.003,10.698,0.004c0.931,0,3.292-0.231,3.088,1.3    c-0.041,0.311-0.163,0.739-0.426,0.938c-4.591,3.468-5.131,8.628-5.375,13.671c-0.427,8.84-0.479,17.7-0.595,26.553    c-0.307,23.513-0.595,47.025-0.82,70.539c-0.054,5.567,0.066,11.142,0.298,16.705c0.185,4.428,1.235,8.648,3.79,12.411    c1.071,1.578,1.958,3.297,2.784,5.021c0.631,1.318-0.015,2.291-1.454,2.303c-11.183,0.092-22.367,0.162-33.551,0.22    c-0.725,0.004-1.463-0.088-2.172-0.244c-0.296-0.065-0.703-0.379-0.75-0.637c-0.06-0.325,0.086-0.847,0.333-1.044    c5.369-4.269,7.315-10.194,8.448-16.662c2.735-15.625,3.385-31.363,3.16-47.186c-0.143-10.087,0.056-20.179,0.101-30.269    c0.002-0.41,0-0.82,0-1.409c-0.191,0.213-5.847,16.466-8.245,24.589c-1.259,4.263-1.842,8.734-2.594,13.135    c-0.454,2.654,0.432,5.043,2.007,7.193c0.503,0.687,1.009,1.38,1.424,2.121c0.666,1.186,0.141,2.2-1.217,2.263    c-0.823,0.038-1.649-0.007-2.473,0.01c-6.161,0.128-12.322,0.27-18.484,0.385c-0.91,0.017-1.827-0.04-2.733-0.14    c-1.051-0.116-1.317-0.671-0.836-1.596c0.067-0.129,0.138-0.255,0.212-0.38c1.85-3.071,2.277-6.809,1.423-10.291    c-3.145-12.81-7.077-25.357-11.674-37.707C248.866,230.019,248.795,229.917,248.883,230.081z"/>
		<path d="M453.386,254.472c-0.216,4.337-0.417,8.155-0.594,11.973c-0.434,9.349-0.892,18.697-1.26,28.048    c-0.1,2.548-0.172,5.148,0.217,7.651c0.356,2.299,1.222,4.551,2.106,6.724c0.648,1.591,1.76,2.986,2.536,4.534    c0.771,1.536,0.032,2.659-1.678,2.606c-2.416-0.074-4.831-0.212-7.243-0.378c-5.911-0.406-11.758,0.198-17.593,1.047    c-0.496,0.072-0.999,0.162-1.495,0.148c-1.515-0.042-2.075-0.906-1.241-2.119c4.57-6.647,6.059-14.164,6.403-22.034    c0.709-16.235,1.764-32.461,2.086-48.703c0.416-20.953,0.272-41.917,0.315-62.876c0.005-2.547-0.145-5.126-0.565-7.633    c-0.295-1.757-1.001-3.504-1.831-5.096c-1.022-1.961-0.606-3.245,1.643-3.399c3.913-0.268,7.842-0.498,11.76-0.433    c5.84,0.098,11.671,0.434,17.408,1.754c7.059,1.624,12.319,5.413,15.53,12.03c2.949,6.076,4.492,12.519,5.394,19.145    c1.139,8.369,1.281,16.748-0.208,25.095c-0.875,4.905-2.081,9.728-4.137,14.295c-2.669,5.929-6.802,10.326-13.092,12.454    c-0.198,0.067-0.383,0.167-0.76,0.333c0.548,0.317,0.917,0.549,1.302,0.75c3.601,1.876,6.279,4.638,8.093,8.276    c3.015,6.048,4.588,12.5,5.252,19.172c0.994,9.995,1.776,20.011,2.814,30.001c0.386,3.709,1.144,7.39,1.912,11.047    c0.714,3.397,2.667,6.167,4.988,8.684c1.655,1.794,3.67,2.378,6.083,2.006c0.693-0.107,1.734,0.111,2.151,0.587    c0.689,0.786,0.138,1.717-0.495,2.444c-2.218,2.552-5.155,3.76-8.391,4.187c-8.457,1.116-15.593-2.898-18.339-10.963    c-1.931-5.671-3.309-11.588-4.323-17.5c-1.819-10.612-3.18-21.304-4.728-31.962c-0.723-4.979-1.604-9.928-3.803-14.504    c-0.864-1.798-1.91-3.544-3.12-5.124C455.798,255.846,454.611,255.34,453.386,254.472z M453.995,170.18    c-1.057,26.007,0.385,51.668-0.567,77.625c3.719-2.701,6.429-5.708,7.173-9.915c0.792-4.479,1.456-9.01,1.729-13.545    c0.793-13.18,0.883-26.368-0.604-39.519c-0.407-3.594-1.206-7.107-3.007-10.312C457.71,172.718,456.293,171.361,453.995,170.18z"/>
		<path d="M355.778,235.944c1.428,0.293,2.478,0.532,3.536,0.721c9.173,1.636,14.302,7.153,15.921,16.256    c1.011,5.687,1.508,11.402,1.486,17.16c-0.03,7.997-0.495,15.97-2.111,23.825c-0.42,2.046-1.071,4.061-1.782,6.03    c-3.567,9.885-11.174,14.764-21.053,16.587c-7.876,1.454-15.825,0.936-23.757,0.42c-2.185-0.142-4.374-0.233-6.56-0.365    c-2.03-0.122-2.43-0.932-1.426-2.759c1.667-3.032,3.397-6.034,4.944-9.127c1.779-3.557,2.462-7.414,2.743-11.36    c0.798-11.183-0.046-22.354-0.189-33.531c-0.152-11.961-0.162-23.925-0.169-35.888c-0.009-14.791,0.074-29.582,0.053-44.374    c-0.003-2.274-0.155-4.585-0.596-6.808c-0.346-1.741-1.161-3.413-1.929-5.04c-0.56-1.188-1.445-2.218-2.073-3.38    c-0.815-1.508-0.286-2.611,1.384-2.847c1.488-0.21,2.999-0.335,4.501-0.343c4.154-0.023,8.309,0.02,12.463,0.064    c3.604,0.038,7.231-0.134,10.806,0.219c10.05,0.991,17.061,6.096,20.533,15.769c2.64,7.356,3.723,14.971,3.547,22.73    c-0.116,5.139-0.28,10.349-1.214,15.381c-1.685,9.078-6.884,15.658-15.59,19.218C358.209,234.928,357.173,235.364,355.778,235.944    z M346.791,309.608c3.566-2.537,5.785-5.825,6.956-9.863c1.975-6.814,3.048-13.775,3.673-20.834    c0.771-8.712,0.822-17.402-0.38-26.072c-0.482-3.473-1.485-6.775-4.005-9.41c-1.582-1.655-3.518-2.627-5.815-3.261    C347.077,263.392,346.934,286.418,346.791,309.608z M347.469,231.885c3.143-1.608,6.05-5.218,7.115-9.026    c1.829-6.545,2.452-13.245,2.52-20.021c0.075-7.359-0.258-14.683-1.696-21.917c-0.688-3.46-1.662-6.833-3.913-9.67    c-0.984-1.24-2.199-2.13-4.026-2.465C347.469,189.909,347.469,210.905,347.469,231.885z"/>
		<path d="M58.776,185.484c-0.006,1.046,0.267,2.42-1.236,2.673c-1.436,0.241-1.79-1.061-2.154-2.059    c-1.616-4.44-3.514-8.712-6.616-12.359c-2.836-3.337-6.425-5.429-10.677-6.218c-6.13-1.138-11.805,3.019-13.11,9.428    c-0.681,3.343-0.537,6.705,0.715,9.849c2.426,6.098,4.905,12.187,7.682,18.129c5.333,11.408,11.094,22.619,16.283,34.09    c3.7,8.181,6.956,16.587,8.8,25.441c1.701,8.169,2.78,16.424,1.818,24.755c-1.07,9.266-3.843,18.005-10.198,25.104    c-6.794,7.588-15.555,10.416-25.564,9.468c-3.582-0.339-7.124-1.082-10.693-1.569c-1.258-0.172-2.551-0.231-3.818-0.163    c-2.116,0.114-3.78,1.07-4.607,3.108c-0.599,1.476-1.063,3.006-1.614,4.502c-0.339,0.919-0.515,2.135-1.889,1.928    c-1.31-0.197-1.292-1.4-1.367-2.373c-0.215-2.774-0.491-5.554-0.508-8.333c-0.051-8.854-0.007-17.71,0.026-26.565    c0.007-1.916,0.133-3.831,0.171-5.747c0.017-0.841,0.123-1.601,1.139-1.721c0.984-0.117,1.434,0.56,1.588,1.366    c0.514,2.688,0.753,5.447,1.49,8.068c0.884,3.143,1.884,6.316,3.34,9.223c3.872,7.73,13.823,11.769,22.079,9.232    c5.428-1.668,8.853-6.265,9.345-12.092c0.585-6.928-1.228-13.408-3.431-19.812c-3.186-9.265-7.388-18.069-12.424-26.476    c-6.154-10.271-11.977-20.714-15.815-32.118c-3.205-9.522-5.439-19.253-5.308-29.366c0.114-8.733,2.455-16.863,7.418-24.121    c4.177-6.11,9.84-10.102,17.202-11.422c4.17-0.747,8.264,0.118,12.367,0.806c2.149,0.361,4.355,0.686,6.517,0.597    c3.746-0.153,5.975-2.836,8.076-5.534c0.755-0.969,1.36-2.055,2.069-3.063c0.338-0.482,0.709-0.968,1.161-1.332    c0.279-0.224,0.807-0.388,1.099-0.27c0.266,0.107,0.467,0.617,0.514,0.974c0.09,0.674,0.061,1.367,0.061,2.051    C58.712,158.723,58.806,180.003,58.776,185.484z"/>
		<path d="M164.112,193.424c-1.701,1.329-3.208,2.295-4.458,3.522c-3.244,3.187-6,6.747-7.819,10.976    c-0.035,0.081-0.082,0.158-0.138,0.23c-0.578,0.743-1.883,0.471-2.09-0.447c-0.001-0.005-0.002-0.01-0.003-0.015    c-0.213-1.017-0.266-2.081-0.269-3.126c-0.023-6.074-0.016-12.149-0.01-18.224c0.002-1.945,0.394-2.415,2.407-2.487    c6.068-0.215,12.136-0.452,18.206-0.522c7.992-0.092,15.986-0.046,23.979-0.029c1.411,0.003,2.822,0.16,4.233,0.238    c1.316,0.073,1.972,0.838,2.113,2.074c0.093,0.814,0.119,1.641,0.121,2.462c0.016,4.845,0.015,9.69,0.019,14.536    c0.001,1.047,0.001,2.094,0.002,3.141c0.001,0.985,0.101,2.027,0,3.006c-0.048,0.464-0.218,0.941-0.583,1.231    c-0.071,0.056-0.15,0.106-0.238,0.129c-0.121,0.032-0.249,0.012-0.368-0.023c-0.644-0.185-0.985-0.767-1.287-1.333    c-0.406-0.762-1.068-2.01-1.449-2.784c-2.215-4.508-5.292-8.349-9.095-11.591c-1.144-0.975-2.516-1.684-4.01-2.663    c-0.038,0.796-0.064,1.151-0.072,1.507c-0.551,23.556-1.075,47.114-1.662,70.669c-0.358,14.381-0.851,28.758-1.197,43.139    c-0.08,3.344,0.333,6.626,2.36,9.538c1.002,1.439,1.655,3.121,2.46,4.697c0.462,0.904-0.314,1.955-1.645,2.092    c-1.541,0.158-3.094,0.3-4.641,0.29c-6.889-0.046-13.778-0.115-20.665-0.28c-0.789-0.019-1.829-0.493-2.281-1.104    c-0.655-0.886,0.041-1.829,0.734-2.536c2.916-2.976,4.349-6.547,4.565-10.698c0.502-9.665,1.391-19.322,1.559-28.992    c0.383-21.973,0.325-43.954,0.591-65.931c0.075-6.247,0.351-12.489,0.626-18.73C164.127,194.886,164.112,194.443,164.112,193.424z    "/>
		<path d="M146.512,218.49c0.146,7.832-0.895,15.492-3.187,22.97c-1.627,5.309-4.276,10.037-8.142,14.091    c-3.074,3.223-6.983,4.5-11.167,5.313c-2.417,0.47-2.423,0.508-2.396,3.005c0.122,11.459,0.162,22.92,0.424,34.375    c0.106,4.648,0.629,9.299,2.674,13.606c0.154,0.326,0.371,0.629,0.483,0.968c0.202,0.609,0.674,1.452,0.441,1.808    c-0.358,0.545-1.204,1.031-1.868,1.068c-2.322,0.129-4.655,0.088-6.982,0.049c-3.832-0.064-7.663-0.177-11.494-0.27    c-0.092-0.003-0.183-0.003-0.274-0.006c-3.437-0.117-3.847-0.724-2.24-3.743c2.76-5.186,3.91-10.78,4.32-16.555    c1.053-14.814,1.002-29.657,0.776-44.489c-0.248-16.294-0.8-32.584-1.274-48.874c-0.108-3.687-0.348-7.378-0.706-11.049    c-0.262-2.691-1.649-4.985-3.068-7.244c-1.155-1.839-0.836-2.51,1.316-2.772c1.99-0.243,3.999-0.372,6.004-0.453    c4.56-0.184,9.123-0.288,13.684-0.462c7.424-0.282,12.666,3.293,16.235,9.467c3.594,6.217,5.384,13.052,6.022,20.174    C146.361,212.464,146.38,215.482,146.512,218.49z M123.586,184.975c-0.295,0.837-0.691,1.578-0.81,2.361    c-0.485,3.196-1.177,6.398-1.259,9.611c-0.205,7.978-0.149,15.964-0.14,23.946c0.012,11.135,0.075,22.27,0.116,33.405    c0.002,0.472,0,0.944,0,1.417c0.857-0.522,1.409-1.117,1.883-1.769c2.029-2.786,3.251-5.954,3.726-9.312    c0.728-5.14,1.208-10.316,1.723-15.484c0.965-9.687,1.309-19.39,0.491-29.107c-0.31-3.687-0.784-7.353-2.219-10.81    C126.39,187.526,125.462,185.977,123.586,184.975z"/>
		<path d="M208.653,222.717c-0.243,15.121-0.482,30.032-0.726,45.195c0.587-0.41,1.07-0.703,1.503-1.057    c3.433-2.805,6.307-6.075,8.332-10.049c0.228-0.447,0.459-0.894,0.702-1.333c0.444-0.801,0.86-1.771,1.992-1.538    c1.242,0.255,1.384,1.362,1.368,2.387c-0.082,5.203-0.206,10.407-0.313,15.61c-0.07,3.446-0.14,6.893-0.209,10.339    c-0.068,3.349,0.134,6.83-0.193,10.16c-0.061,0.618-0.29,1.26-0.795,1.621c-0.159,0.113-0.344,0.196-0.539,0.205    c-0.159,0.007-0.317-0.035-0.466-0.093c-1.282-0.498-1.578-2.105-2.207-3.19c-0.679-1.171-1.504-2.253-2.454-3.217    c-1.967-1.995-4.421-3.43-7-4.487c-0.23,16.149-0.458,32.162-0.689,48.426c0.94-0.528,1.729-0.949,2.497-1.406    c5.699-3.395,9.194-8.76,12.642-14.166c0.859-1.347,1.675-2.726,2.622-4.009c0.292-0.395,0.921-0.943,1.442-0.767    c0.483,0.164,0.634,0.919,0.635,1.379c0.019,7.76-0.012,15.52-0.043,23.279c-0.002,0.499-0.08,1.002-0.157,1.497    c-0.279,1.789-0.674,2.168-2.524,2.147c-11.505-0.13-23.01-0.277-34.514-0.437c-0.955-0.013-1.909-0.149-2.862-0.245    c-1.422-0.144-2.111-1.253-1.266-2.39c2.999-4.032,3.51-8.728,3.855-13.49c1.556-21.459,2.63-42.934,1.96-64.46    c-0.315-10.085-0.537-20.177-1.132-30.247c-0.223-3.781-1.385-7.506-2.126-11.256c-0.052-0.266-0.189-0.516-0.24-0.783    c-0.371-1.963,0.038-2.52,2.031-2.559c10.45-0.202,20.9-0.392,31.351-0.557c2.084-0.033,2.523,0.396,2.588,2.427    c0.214,6.706,0.394,13.413,0.586,20.119c0.006,0.228-0.22,1.892-0.707,2.005c-0.525,0.123-1.033-0.529-1.295-0.952    c-1.561-2.517-2.941-5.152-4.583-7.613C215.566,225.987,212.41,224.047,208.653,222.717z"/>
		<path d="M404.594,187.711c-0.242,15.026-0.482,29.94-0.727,45.105c0.569-0.388,1.053-0.671,1.482-1.021    c3.489-2.847,6.406-6.172,8.437-10.233c0.254-0.507,0.523-1.007,0.802-1.5c0.415-0.734,0.881-1.461,1.918-1.183    c1.074,0.289,1.263,1.267,1.254,2.202c-0.043,4.75-0.101,9.499-0.203,14.247c-0.141,6.619-0.326,13.238-0.489,19.857    c-0.017,0.685-0.007,1.37-0.022,2.055c-0.02,0.913-0.163,1.813-1.241,2.011c-1.015,0.186-1.437-0.562-1.775-1.366    c-1.97-4.696-5.538-7.697-10.44-9.692c-0.23,16.143-0.458,32.156-0.69,48.423c0.937-0.526,1.726-0.946,2.494-1.403    c5.661-3.368,9.142-8.688,12.574-14.05c0.862-1.346,1.664-2.735,2.612-4.016c0.065-0.088,0.146-0.165,0.237-0.235    c0.734-0.555,1.903-0.061,1.921,0.859c0,0.005,0,0.01,0,0.015c0.026,7.477,0,14.954-0.018,22.431    c-0.001,0.328-0.023,0.865-0.052,1.192c-0.255,2.81-0.562,3.191-3.345,3.162c-11.325-0.117-22.649-0.276-33.973-0.445    c-1.045-0.016-2.096-0.151-3.129-0.326c-0.861-0.146-1.061-0.64-0.445-1.341c0.06-0.069,0.121-0.141,0.193-0.194    c4.045-2.996,4.804-7.388,5.227-11.994c1.92-20.91,1.459-41.881,1.567-62.832c0.055-10.541-0.412-21.086-0.684-31.628    c-0.051-1.959-0.313-3.913-0.464-5.869c-0.259-3.351-1.887-6.15-3.546-8.95c-0.789-1.332-0.424-2,1.064-2.041    c10.401-0.282,20.803-0.574,31.205-0.807c3.112-0.07,3.222,0.057,3.333,3.206c0.228,6.478,0.387,12.958,0.574,19.437    c0.004,0.137-0.138,1.763-0.665,1.904c-0.556,0.148-1.085-0.58-1.369-1.033c-1.599-2.549-3.021-5.212-4.689-7.713    c-1.881-2.822-4.67-4.573-7.748-5.878C405.412,187.914,405.015,187.836,404.594,187.711z"/>
		<path d="M78.142,251.587c4.18-3.154,7.485-6.862,9.764-11.45c0.325-0.653,0.584-1.369,1.042-1.916    c0.338-0.405,1.009-0.87,1.425-0.785c0.501,0.102,1.122,0.688,1.273,1.19c0.257,0.85,0.252,1.799,0.242,2.705    c-0.095,8.493-0.225,16.985-0.32,25.478c-0.033,2.968-0.002,5.937,0.011,8.905c0.004,0.912-0.075,1.83-1.122,2.094    c-1.088,0.275-1.502-0.561-1.892-1.381c-2.229-4.693-5.478-7.658-10.499-9.497c0,16.096,0,32.119,0,48.23    c0.295-0.124,0.684-0.231,1.014-0.435c3.041-1.883,6.02-3.899,8.108-6.852c2.633-3.721,5.032-7.607,7.604-11.374    c0.495-0.725,1.389-1.783,1.982-1.712c1.283,0.154,0.793,1.549,0.807,2.409c0.124,7.302,0.175,14.606,0.247,21.909    c0.003,0.273-0.006,0.547-0.026,0.819c-0.135,1.782-1.63,3.155-3.417,3.158c-11.233,0.018-22.466,0.011-33.699-0.03    c-1.383-0.005-3.826,0.361-4.448-0.453c-0.329-0.669,0.517-1.057,0.801-1.273c4.048-3.08,4.769-7.523,5.139-12.173    c1.669-20.975,0.846-41.981,0.764-62.974c-0.035-8.807-0.463-17.614-0.805-26.417c-0.138-3.552-0.515-7.096-0.804-10.642    c-0.281-3.436-1.926-6.325-3.689-9.174c-0.813-1.314-0.441-2.005,1.037-2.062c10.486-0.401,20.972-0.811,31.461-1.166    c2.828-0.096,2.982,0.109,3.107,2.984c0.287,6.611,0.57,13.221,0.789,19.834c0,0.006,0,0.011,0,0.017    c0.015,0.947-1.276,1.39-1.896,0.674c-0.071-0.082-0.135-0.169-0.187-0.262c-2.555-4.546-4.956-9.21-9.779-11.873    c-1.223-0.675-2.517-1.222-4.032-1.95V251.587z"/>
	</g>
	<path d="M406.543,346.572c-10.911-1.934-21.801-3.995-32.741-5.745c-7.21-1.153-14.494-1.795-21.826-1.302   c-5.869,0.395-11.438,2.032-16.897,4.16c-1.49,0.581-2.986,1.151-4.513,1.626c-0.896,0.278-1.826,0.409-2.573-0.431   c-0.841-0.946-0.459-1.994-0.002-2.953c1.432-3.006,3.831-5.218,6.328-7.28c7.167-5.919,15.632-9.071,24.524-11.281   c9.787-2.432,19.622-2.213,29.505-0.695c9.833,1.51,19.655,3.119,29.524,4.352c9.694,1.211,19.446,2.031,29.235,1.243   c5.454-0.439,10.911-0.93,16.095-2.942c1.885-0.731,2.602-0.217,2.357,1.813c-0.204,1.694-0.558,3.455-1.273,4.988   c-4.141,8.874-11.373,13.987-20.706,16.134c-1.005,0.231-2.019,0.419-3.04,0.579c-5.531,0.866-11.16,0.849-16.715,0.158   C418.365,348.315,411.135,347.385,406.543,346.572z"/>
</g>















</svg>
